<?xml version="1.0" encoding="utf-8"?>
<!-- Generator: Adobe Illustrator 17.0.0, SVG Export Plug-In . SVG Version: 6.00 Build 0)  -->
<!DOCTYPE svg PUBLIC "-//W3C//DTD SVG 1.1//EN" "http://www.w3.org/Graphics/SVG/1.1/DTD/svg11.dtd">
<svg version="1.1" id="Capa_1" xmlns="http://www.w3.org/2000/svg" xmlns:xlink="http://www.w3.org/1999/xlink" x="0px" y="0px"
	 width="1336px" height="768px" viewBox="0 0 1336 768" enable-background="new 0 0 1336 768" xml:space="preserve">
<g>
	<path fill="#FFFFFF" d="M668-0.007c-212.077,0-384,171.923-384,384s171.923,384,384,384s384-171.923,384-384
		S880.077-0.007,668-0.007z M566.5,573.207H474.74V297.142H566.5V573.207z M520.617,259.473h-0.596
		c-30.79,0-50.736-21.206-50.736-47.711c0-27.08,20.542-47.69,51.941-47.69c31.406,0,50.702,20.611,51.311,47.69
		C572.537,238.266,552.632,259.473,520.617,259.473z M897.436,573.207h-91.787V425.502c0-37.087-13.252-62.414-46.486-62.414
		c-25.361,0-40.427,17.051-47.081,33.562c-2.416,5.901-3.039,14.094-3.039,22.37V573.2H617.25c0,0,1.232-250.163,0-276.059h91.8
		v39.12c12.198-18.769,33.952-45.602,82.724-45.602c60.388,0,105.662,39.456,105.662,124.233V573.207z"/>
	<path fill="#007AB9" d="M709.05,337.165v-0.904c-0.185,0.308-0.445,0.609-0.609,0.904H709.05z"/>
</g>
</svg>
